<svg width="85" height="24" viewBox="0 0 85 24" fill="none" xmlns="http://www.w3.org/2000/svg">
<path d="M4.71875 23.3125H0V0.765627H14.7656V4.65625H4.71875V10.7031H13.8906V14.4375H4.71875V23.3125Z" fill="white"/>
<path d="M23.1106 23.6719C18.0481 23.6719 14.8138 20.4219 14.8138 14.9219C14.8138 9.5 18.095 6.20313 23.1106 6.20313C28.1263 6.20313 31.4075 9.48438 31.4075 14.9219C31.4075 20.4375 28.1731 23.6719 23.1106 23.6719ZM23.1106 20.1875C25.345 20.1875 26.7669 18.2969 26.7669 14.9375C26.7669 11.6094 25.3294 9.6875 23.1106 9.6875C20.8919 9.6875 19.4388 11.6094 19.4388 14.9375C19.4388 18.2969 20.8606 20.1875 23.1106 20.1875Z" fill="white"/>
<path d="M32.4869 23.3125V6.5625H36.8931V9.57813H36.9869C37.5806 7.45313 39.0025 6.29688 40.9712 6.29688C41.5025 6.29688 41.9556 6.375 42.2681 6.46875V10.4844C41.8931 10.3281 41.2681 10.2188 40.6119 10.2188C38.3619 10.2188 37.0494 11.5938 37.0494 13.9531V23.3125H32.4869Z" fill="white"/>
<path d="M42.8631 23.3125V6.5625H47.2694V9.59375H47.3631C48.0662 7.57813 49.8631 6.25 52.1444 6.25C54.5662 6.25 56.2537 7.5 56.8162 9.6875H56.91C57.66 7.57813 59.66 6.25 62.1131 6.25C65.3944 6.25 67.5975 8.5 67.5975 11.875V23.3125H63.035V13.0156C63.035 11.0781 62.0662 10.0156 60.3006 10.0156C58.5662 10.0156 57.4256 11.2813 57.4256 13.1406V23.3125H53.035V12.875C53.035 11.0781 52.0194 10.0156 50.3319 10.0156C48.5975 10.0156 47.4256 11.3281 47.4256 13.2031V23.3125H42.8631Z" fill="white"/>
<path d="M75.6769 20.2813C77.6612 20.2813 79.3019 18.9844 79.3019 17.1719V15.9531L75.7706 16.1719C74.0675 16.2969 73.0987 17.0625 73.0987 18.25C73.0987 19.5 74.13 20.2813 75.6769 20.2813ZM74.1769 23.5781C70.9894 23.5781 68.5675 21.5156 68.5675 18.5C68.5675 15.4531 70.9112 13.6875 75.0831 13.4375L79.3019 13.1875V12.0781C79.3019 10.5156 78.2081 9.60938 76.4894 9.60938C74.7862 9.60938 73.7081 10.4531 73.4894 11.6875H69.3175C69.4894 8.4375 72.255 6.20313 76.6925 6.20313C80.9894 6.20313 83.9425 8.42188 83.9425 11.7969V17.9433V23.3125L79.38 23.3125V20.75H79.2862C78.3487 22.5313 76.2706 23.5781 74.1769 23.5781Z" fill="white"/>
<path d="M79.38 23.3125V6.5625H83.9425V23.3125L79.38 23.3125ZM81.6612 4.71875C80.2862 4.71875 79.2237 3.67188 79.2237 2.35938C79.2237 1.03125 80.2862 0 81.6612 0C83.0362 0 84.0987 1.03125 84.0987 2.35938C84.0987 3.67188 83.0362 4.71875 81.6612 4.71875Z" fill="white"/>
</svg>
